# File created by Blade
# Date/Time:  Tue Jan 27 20:08:00 2015
#---------------------------------------------------------
:version 1.10
:name HOM
:units
  mass 1.0
  length 1.000000
  angle deg
:documentation
     Acclaim Skeleton File
:root
   axis xyz
   order TX TY TZ RX RY RZ
   position 0.000000 0.000000 0.000000
   orientation 0 0 0
:bonedata
   begin
      id 1
      name Spine_dum
      direction 0.000000 1.000000 0.000000
      length 6.116652
      axis 0.0 0.0 0.0 xyz
   end
   begin
      id 2
      name LeftUpLeg_dum
      direction 1.000000 0.000000 0.000000
      length 4.711765
      axis 0.0 0.0 0.0 xyz
   end
   begin
      id 3
      name RightUpLeg_dum
      direction -1.000000 0.000000 0.000000
      length 4.711765
      axis 0.0 0.0 0.0 xyz
   end
   begin
      id 4
      name Spine
      direction 0.000000 1.000000 0.000000
      length 0.000000
      axis 0.0 0.0 0.0 xyz
      dof rx ry rz
   end
   begin
      id 5
      name Spine_dum1
      direction 0.000000 1.000000 0.000000
      length 15.225563
      axis 0.0 0.0 0.0 xyz
   end
   begin
      id 6
      name Spine_dum2
      direction 0.000000 1.000000 0.000000
      length 8.977654
      axis 0.0 0.0 0.0 xyz
   end
   begin
      id 7
      name Spine_dum3
      direction 0.000000 1.000000 0.000000
      length 8.977654
      axis 0.0 0.0 0.0 xyz
   end
   begin
      id 8
      name Head
      direction 0.000000 1.000000 0.000000
      length 4.527550
      axis 0.0 0.0 0.0 xyz
      dof rx ry rz
   end
   begin
      id 9
      name LeftShoulder
      direction 1.000000 0.000000 0.000000
      length 7.110130
      axis 0.0 0.0 -90.0 xyz
      dof rx ry rz
   end
   begin
      id 10
      name LeftArm
      direction 1.000000 0.000000 0.000000
      length 10.398341
      axis 0.0 0.0 -90.0 xyz
      dof rx ry rz
   end
   begin
      id 11
      name LeftForeArm
      direction 1.000000 0.000000 0.000000
      length 8.888997
      axis 0.0 0.0 -90.0 xyz
      dof ry rz rx
   end
   begin
      id 12
      name LeftHand
      direction 0.000000 0.000000 0.000000
      length 0.000000
      axis 0.0 0.0 -90.0 xyz
      dof rx ry rz
   end
   begin
      id 13
      name LeftHand_dum1
      direction 0.000000 0.000000 0.000000
      length 0.000000
      axis 0.0 0.0 -90.0 xyz
   end
   begin
      id 14
      name LeftHand_dum2
      direction 1.000000 0.000000 0.000000
      length 3.937000
      axis 0.0 0.0 -90.0 xyz
   end
   begin
      id 15
      name LeftHandThumb1
      direction 0.000000 0.000000 1.000000
      length 3.937000
      axis 0.0 0.0 -90.0 xyz
      dof rx rz ry
   end
   begin
      id 16
      name RightShoulder
      direction -1.000000 0.000000 0.000000
      length 7.110130
      axis 0.0 0.0 90.0 xyz
      dof rx ry rz
   end
   begin
      id 17
      name RightArm
      direction -1.000000 0.000000 0.000000
      length 10.398341
      axis 0.0 0.0 90.0 xyz
      dof rx ry rz
   end
   begin
      id 18
      name RightForeArm
      direction -1.000000 0.000000 0.000000
      length 8.888997
      axis 0.0 0.0 90.0 xyz
      dof ry rz rx
   end
   begin
      id 19
      name RightHand
      direction 0.000000 0.000000 0.000000
      length 0.000000
      axis 0.0 0.0 90.0 xyz
      dof rx ry rz
   end
   begin
      id 20
      name RightHand_dum1
      direction 0.000000 0.000000 0.000000
      length 0.000000
      axis 0.0 0.0 90.0 xyz
   end
   begin
      id 21
      name RightHand_dum2
      direction -1.000000 0.000000 0.000000
      length 3.937000
      axis 0.0 0.0 90.0 xyz
   end
   begin
      id 22
      name RightHandThumb1
      direction 0.000000 0.000000 1.000000
      length 3.937000
      axis 0.0 0.0 90.0 xyz
      dof rx rz ry
   end
   begin
      id 23
      name LeftUpLeg
      direction 0.000000 -1.000000 0.000000
      length 15.510451
      axis 0.0 0.0 0.0 xyz
      dof rx ry rz
   end
   begin
      id 24
      name LeftLeg
      direction 0.000000 -1.000000 0.000000
      length 14.858061
      axis 0.0 0.0 0.0 xyz
      dof rx ry rz
   end
   begin
      id 25
      name LeftFoot
      direction 0.000000 -0.258819 0.965926
      length 5.128852
      axis 15.0 0.0 0.0 xyz
      dof rx ry rz
   end
   begin
      id 26
      name LeftToeBase
      direction 0.000000 0.000000 1.000000
      length 2.952750
      axis 0.0 0.0 0.0 xyz
      dof rx ry rz
   end
   begin
      id 27
      name RightUpLeg
      direction 0.000000 -1.000000 0.000000
      length 15.510451
      axis 0.0 0.0 0.0 xyz
      dof rx ry rz
   end
   begin
      id 28
      name RightLeg
      direction 0.000000 -1.000000 0.000000
      length 14.858061
      axis 0.0 0.0 0.0 xyz
      dof rx ry rz
   end
   begin
      id 29
      name RightFoot
      direction 0.000000 -0.258819 0.965926
      length 5.128852
      axis 15.0 0.0 0.0 xyz
      dof rx ry rz
   end
   begin
      id 30
      name RightToeBase
      direction 0.000000 0.000000 1.000000
      length 2.952750
      axis 0.0 0.0 0.0 xyz
      dof rx ry rz
   end
:hierarchy
   begin
      root Spine_dum LeftUpLeg_dum RightUpLeg_dum
      Spine_dum Spine
      LeftUpLeg_dum LeftUpLeg
      RightUpLeg_dum RightUpLeg
      Spine Spine_dum1 Spine_dum2 Spine_dum3
      Spine_dum1 Head
      Spine_dum2 LeftShoulder
      Spine_dum3 RightShoulder
      LeftShoulder LeftArm
      LeftArm LeftForeArm
      LeftForeArm LeftHand
      LeftHand LeftHand_dum1 LeftHand_dum2
      LeftHand_dum1 LeftHandThumb1
      RightShoulder RightArm
      RightArm RightForeArm
      RightForeArm RightHand
      RightHand RightHand_dum1 RightHand_dum2
      RightHand_dum1 RightHandThumb1
      LeftUpLeg LeftLeg
      LeftLeg LeftFoot
      LeftFoot LeftToeBase
      RightUpLeg RightLeg
      RightLeg RightFoot
      RightFoot RightToeBase
   end

# File created by Blade
# Date/Time:  Tue Jan 27 20:07:51 2015
# Frame Rate: 120.000 fps
#------------------------------------------------------
:FULLY-SPECIFIED
:DEGREES
1538
root 5.676237 32.419948 -5.824867 -3.906353 -15.231483 -3.602171
Spine 7.598148 7.360997 -1.496661
Head 19.352948 -5.072112 3.042925
LeftShoulder -15.617487 1.291799 30.157428
LeftArm -8.035644 -19.859254 -74.870184
LeftForeArm -14.549139 -0.000000 114.790626
LeftHand 10.899742 -0.000000 4.066080
LeftHandThumb1 -26.253704 0.000000 33.147579
RightShoulder -19.465480 -18.527354 -21.155470
RightArm 9.961227 -20.444492 89.524247
RightForeArm -16.051149 -0.000000 25.769370
RightHand 17.807824 0.000000 0.903293
RightHandThumb1 -24.326973 -0.000000 -32.862282
LeftUpLeg 8.974979 6.998352 -4.000695
LeftLeg -2.174622 -0.000000 0.000000
LeftFoot -17.729443 20.036818 -19.210171
LeftToeBase 21.219327 -0.000000 -0.000000
RightUpLeg -44.601509 -3.136141 11.468501
RightLeg 81.053877 -0.000000 -0.000000
RightFoot 26.888243 -29.121060 7.654865
RightToeBase 20.478282 -0.000000 -0.000000
1539
root 5.683543 32.418291 -5.837397 -3.855982 -15.900784 -3.620750
Spine 7.541810 7.840482 -1.425666
Head 19.476982 -4.958477 2.954032
LeftShoulder -15.759023 1.428838 30.103320
LeftArm -8.130595 -20.026549 -74.834880
LeftForeArm -14.643065 0.000000 114.814698
LeftHand 10.929414 0.000000 4.242641
LeftHandThumb1 -26.253704 0.000000 33.147579
RightShoulder -19.423985 -18.594579 -21.175337
RightArm 9.997680 -20.463648 89.489110
RightForeArm -15.953253 -0.000000 25.704808
RightHand 17.858674 -0.000000 0.965255
RightHandThumb1 -24.326973 -0.000000 -32.862282
LeftUpLeg 8.913515 7.094068 -4.014811
LeftLeg -2.076187 -0.000000 0.000000
LeftFoot -18.035632 20.374130 -19.502185
LeftToeBase 21.165724 -0.000000 -0.000000
RightUpLeg -44.772268 -3.340820 11.260207
RightLeg 80.963513 -0.000000 -0.000000
RightFoot 26.749260 -29.349354 7.695850
RightToeBase 17.765973 -0.000000 -0.000000
1540
root 5.685403 32.419004 -5.850007 -3.819916 -16.517828 -3.684567
Spine 7.519590 8.295367 -1.313307
Head 19.591270 -4.876127 2.880663
LeftShoulder -15.876775 1.566480 30.066009
LeftArm -8.233117 -20.279246 -74.827295
LeftForeArm -14.796022 -0.000000 114.805018
LeftHand 11.018632 0.000000 3.869478
LeftHandThumb1 -26.253704 0.000000 33.147579
RightShoulder -19.375524 -18.635912 -21.184215
RightArm 9.978248 -20.428513 89.473412
RightForeArm -15.994120 -0.000000 25.660578
RightHand 17.836845 0.000000 0.914628
RightHandThumb1 -24.326973 -0.000000 -32.862282
LeftUpLeg 8.860564 7.111248 -3.993324
LeftLeg -1.942647 -0.000000 0.000000
LeftFoot -18.412405 20.772596 -19.825790
LeftToeBase 21.088937 -0.000000 -0.000000
RightUpLeg -44.895784 -3.586920 11.084691
RightLeg 80.810002 -0.000000 -0.000000
RightFoot 26.630559 -29.556402 7.638022
RightToeBase 17.495548 -0.000000 -0.000000
1541
root 5.698068 32.419412 -5.862161 -3.786414 -17.095181 -3.686125
Spine 7.497990 8.708565 -1.233001
Head 19.681533 -4.776509 2.741992
LeftShoulder -15.973731 1.709840 30.015611
LeftArm -8.344953 -20.531414 -74.886399
LeftForeArm -14.769254 0.000000 114.818299
LeftHand 10.988567 0.000000 3.669380
LeftHandThumb1 -26.253704 0.000000 33.147579
RightShoulder -19.303369 -18.673636 -21.225491
RightArm 10.003638 -20.469942 89.426800
RightForeArm -15.927310 0.000000 25.594309
RightHand 17.889644 -0.000000 0.951248
RightHandThumb1 -24.326973 -0.000000 -32.862282
LeftUpLeg 8.771861 7.128249 -4.049753
LeftLeg -1.782671 -0.000000 0.000000
LeftFoot -18.766975 21.225639 -19.988897
LeftToeBase 21.267758 -0.000000 -0.000000
RightUpLeg -45.062827 -3.866219 10.793901
RightLeg 80.694089 -0.000000 -0.000000
RightFoot 26.268813 -29.837207 7.983948
RightToeBase 18.440153 -0.000000 -0.000000
1542
root 5.707543 32.419026 -5.874552 -3.785640 -17.661063 -3.725142
Spine 7.539282 9.158343 -1.076516
Head 19.755001 -4.709220 2.547007
LeftShoulder -15.861564 1.342996 30.054807
LeftArm -9.149635 -20.803977 -74.642221
LeftForeArm -14.788322 -0.000000 114.908223
LeftHand 11.153046 -0.000000 4.075094
LeftHandThumb1 -26.253704 0.000000 33.147579
RightShoulder -19.283182 -18.696436 -21.306839
RightArm 10.003110 -20.535662 89.424710
RightForeArm -15.883446 -0.000000 25.514577
RightHand 17.815663 -0.000000 0.889165
RightHandThumb1 -24.326973 -0.000000 -32.862282
LeftUpLeg 8.718413 6.941795 -4.096038
LeftLeg -1.610417 -0.000000 0.000000
LeftFoot -19.294510 21.738483 -20.377477
LeftToeBase 21.458475 -0.000000 -0.000000
RightUpLeg -45.175936 -4.112112 10.518177
RightLeg 80.523633 -0.000000 -0.000000
RightFoot 25.887791 -30.001280 8.458475
RightToeBase 21.338492 -0.000000 -0.000000
